<?xml version="1.0" encoding="UTF-8" standalone="no"?>
<!-- Generator: Adobe Illustrator 16.0.0, SVG Export Plug-In . SVG Version: 6.00 Build 0)  -->

<svg
   version="1.1"
   id="Layer_1"
   x="0px"
   y="0px"
   width="981.70972"
   height="128"
   viewBox="0 0 981.70972 127.99999"
   enable-background="new 0 0 1000.258 353.502"
   xml:space="preserve"
   sodipodi:docname="Comcast_Logo.svg"
   inkscape:version="1.2.2 (b0a8486, 2022-12-01)"
   xmlns:inkscape="http://www.inkscape.org/namespaces/inkscape"
   xmlns:sodipodi="http://sodipodi.sourceforge.net/DTD/sodipodi-0.dtd"
   xmlns="http://www.w3.org/2000/svg"
   xmlns:svg="http://www.w3.org/2000/svg"><defs
   id="defs35" /><sodipodi:namedview
   id="namedview33"
   pagecolor="#ffffff"
   bordercolor="#000000"
   borderopacity="0.25"
   inkscape:showpageshadow="2"
   inkscape:pageopacity="0.0"
   inkscape:pagecheckerboard="0"
   inkscape:deskcolor="#d1d1d1"
   showgrid="false"
   inkscape:zoom="0.66760581"
   inkscape:cx="272.61596"
   inkscape:cy="152.03582"
   inkscape:window-width="1792"
   inkscape:window-height="1067"
   inkscape:window-x="0"
   inkscape:window-y="25"
   inkscape:window-maximized="1"
   inkscape:current-layer="Layer_1" />
<g
   id="g225"
   transform="matrix(0.78552096,0,0,0.78552096,-287.93079,-1.4084461e-4)"><path
     fill="#ffffff"
     d="m 500.044,17.759 c 3.688,-6.022 9.807,-12.323 16.396,-14.988 11.341,-5.16 26.542,-2.941 35.795,5.224 8.954,8.112 13.496,19.23 11.353,31.66 2.196,-0.405 4.413,-1.811 6.738,-2.611 13.899,-3.923 28.599,0.331 37.511,12.248 6.694,8.507 8.443,21.724 4.425,32.001 -1.994,5.169 -5.395,9.817 -9.817,13.783 l 0.446,0.448 c 12.931,0.628 25.639,10.67 29.561,22.982 4.253,12.419 0.512,25.69 -8.57,34.773 -7.42,7.334 -16.961,9.872 -27.567,9.658 h -192.55 c -15.81,0.341 -28.026,-6.663 -34.603,-20.722 -5.16,-12.068 -2.612,-27.503 7.024,-36.702 6.076,-6.354 13.688,-8.956 21.896,-10.266 -9.295,-8.624 -13.773,-20.424 -11.161,-33.078 1.866,-10.254 10.607,-20.637 20.648,-24.219 8.847,-3.518 20.83,-2.9 28.932,1.875 l 0.288,-0.352 c -2.441,-13.954 3.742,-26.543 15.317,-34.261 10.32,-6.981 26.821,-6.801 36.926,0.62 4.542,2.781 8.283,7.557 11.012,11.927"
     id="path2" /><path
     fill="#645faa"
     d="m 554.558,22.972 c 4.137,8.347 1.707,19.284 -2.611,26.778 l -33.408,75.163 -0.289,0.352 -12.076,-76.25 c -0.969,-7.322 6.854,-10.446 11.459,-13.964 -0.234,-1.076 -1.418,-1.023 -2.163,-1.524 l -11.288,-0.118 -0.343,-0.341 c 0.064,-9.466 5.16,-18.207 13.794,-22.801 9.02,-5.212 21.725,-3.795 29.549,2.889 3.177,2.834 5.853,6.127 7.376,9.816"
     id="path4" /><path
     fill="#c9234a"
     d="m 493.008,20.36 c 2.73,5.053 4.308,10.789 3.348,17.141 l -13.623,87.305 c 0.074,0.106 -0.053,0.224 -0.161,0.276 l -3.528,-7.024 -34.144,-76.25 c -3.177,-9.818 -0.234,-20.083 6.918,-27.12 7.206,-7.312 19.06,-9.295 28.484,-5.329 4.989,2.154 9.754,6.12 12.706,11.001"
     id="path6" /><path
     fill="#0089cf"
     d="m 603.978,57.115 c 4.594,7.834 3.561,19.689 -1.547,26.959 -3.164,5.106 -8.389,7.654 -12.813,11.001 L 518.87,143.64 h -0.162 l 0.79,-2.323 L 557,56.668 c 5.618,-9.978 16.342,-15.031 27.684,-13.507 7.771,1.419 15.542,6.471 19.294,13.954"
     id="path8" /><path
     fill="#f36f21"
     d="m 443.259,56.668 39.026,86.963 h -0.628 l -78.68,-54.227 c -8.007,-6.747 -11.289,-16.853 -8.571,-27.065 2.036,-7.654 8.389,-14.806 15.947,-17.643 12.375,-4.53 26.317,0.288 32.906,11.972"
     id="path10" /><path
     fill="#0db14b"
     d="m 624.509,118.505 c 3.922,8.283 2.377,19.625 -3.23,26.67 -5.563,6.749 -13.005,10.437 -21.736,10.202 l -83.893,0.054 70.279,-48.896 c 6.867,-4.424 17.303,-5.225 24.797,-1.643 5.787,2.271 11.235,7.942 13.783,13.613"
     id="path12" /><path
     fill="#fdb913"
     d="m 376.08,118.505 c -3.911,8.283 -2.377,19.625 3.241,26.67 5.564,6.749 12.983,10.437 21.725,10.202 l 83.893,0.054 -70.28,-48.896 c -6.865,-4.424 -17.3,-5.225 -24.784,-1.643 -5.79,2.271 -11.236,7.942 -13.795,13.613"
     id="path14" /></g><g
   id="g216"
   transform="matrix(0.75751427,0,0,0.75751427,224,-147.78281)"><path
     d="m 225.435,205.65 c -40.763,0 -73.893,33.152 -73.893,73.916 0,40.753 33.13,73.925 73.893,73.925 40.764,0 73.916,-33.172 73.916,-73.925 0,-40.763 -33.152,-73.916 -73.916,-73.916 m 0,133.28 c -32.736,0 -59.375,-26.637 -59.375,-59.363 0,-32.717 26.639,-59.355 59.375,-59.355 32.737,0 59.376,26.639 59.376,59.355 0,32.726 -26.639,59.363 -59.376,59.363"
     id="path16" /><path
     d="m 862.724,280.504 c -3.965,-2.08 -28.088,-14.498 -31.553,-16.299 -12.653,-6.471 -17.141,-12.185 -17.141,-21.864 0,-13.452 11.045,-22.14 28.173,-22.14 10.054,0 19.774,4.424 25.478,7.632 1.035,0.565 2.261,0.885 3.539,0.885 3.987,0 7.26,-3.272 7.26,-7.259 0,-2.686 -1.473,-5.043 -3.635,-6.301 -7.184,-4.009 -19.434,-9.498 -32.642,-9.498 -25.167,0 -42.724,15.072 -42.724,36.681 0,19.391 12.749,28.537 25.222,34.912 3.495,1.78 27.896,14.358 31.552,16.287 9.637,5.042 14.967,12.611 14.967,21.321 0,11.672 -9.891,24.08 -28.194,24.08 -17.803,0 -31.628,-11.939 -35.444,-15.617 l -1.142,-1.088 -10.755,9.807 1.257,1.258 c 4.775,4.735 22.237,20.19 46.084,20.19 26.735,0 42.714,-19.646 42.714,-38.63 0,-14.177 -8.379,-26.705 -23.016,-34.357"
     id="path18" /><path
     d="m 73.895,220.211 c 15.872,0 30.785,6.184 41.978,17.365 2.665,2.654 7.675,2.654 10.297,0 1.386,-1.354 2.121,-3.176 2.121,-5.127 0,-1.93 -0.735,-3.774 -2.121,-5.128 l -0.895,-0.917 C 111.438,213.015 93.178,205.65 73.895,205.65 33.152,205.65 0,238.813 0,279.555 c 0,40.765 33.152,73.937 73.895,73.937 21.51,0 40.89,-9.229 54.396,-23.942 l -10.287,-10.297 c -10.873,12.067 -26.607,19.678 -44.11,19.678 -32.726,0 -59.365,-26.648 -59.365,-59.375 10e-4,-32.695 26.64,-59.345 59.366,-59.345"
     id="path20" /><path
     d="m 574.941,220.211 c 15.852,0 30.785,6.184 41.977,17.365 2.654,2.654 7.666,2.654 10.288,0 1.386,-1.354 2.153,-3.176 2.153,-5.127 0,-1.93 -0.768,-3.774 -2.153,-5.128 l -0.885,-0.917 c -13.868,-13.389 -32.107,-20.754 -51.38,-20.754 -40.752,0 -73.916,33.162 -73.916,73.904 0,40.765 33.164,73.937 73.916,73.937 21.5,0 40.88,-9.229 54.407,-23.942 L 619.05,319.252 c -10.873,12.067 -26.629,19.678 -44.109,19.678 -32.737,0 -59.387,-26.648 -59.387,-59.375 0,-32.694 26.65,-59.344 59.387,-59.344"
     id="path22" /><path
     d="m 449.741,205.65 c -2.729,0 -4.883,1.759 -6.056,4.029 -1.194,2.27 -43.492,106.897 -43.502,106.897 0,0 -42.298,-104.628 -43.482,-106.897 -1.183,-2.271 -3.335,-4.029 -6.064,-4.029 -3.188,0 -5.586,2.345 -6.428,5.299 -0.842,2.973 -24.709,134.653 -24.709,134.653 -0.086,0.428 -0.128,0.876 -0.128,1.333 0,3.623 2.953,6.556 6.556,6.556 3.198,0 5.863,-2.28 6.438,-5.297 L 353.035,235.53 c 0,0 39.879,98.518 41.041,100.862 1.173,2.335 3.347,4.158 6.119,4.158 2.771,0 4.936,-1.823 6.097,-4.158 1.173,-2.345 41.051,-100.862 41.051,-100.862 l 21.479,117.151 h 13.348 c 0,0 -25.147,-138.76 -25.989,-141.732 -0.855,-2.954 -3.254,-5.299 -6.44,-5.299"
     id="path24" /><path
     d="m 712.527,205.66 c -2.761,-0.01 -4.902,1.791 -6.107,4.136 -1.195,2.335 -54.738,134.582 -54.738,134.582 -0.32,0.777 -0.502,1.642 -0.502,2.558 0,3.623 2.932,6.566 6.556,6.566 2.761,0 5.128,-1.727 6.099,-4.168 L 684.62,298.2 h 55.825 l 22.174,54.481 h 14.166 c 0,0 -56.987,-140.551 -58.159,-142.886 -1.164,-2.344 -3.328,-4.145 -6.099,-4.135 m -21.981,77.987 21.98,-54.046 22.002,54.046 z"
     id="path26" /><path
     d="m 992.966,206.438 h -82.293 c -4.009,0 -7.26,3.263 -7.26,7.281 0,3.997 3.251,7.259 7.26,7.259 h 34.494 V 352.67 h 13.326 V 220.979 h 34.473 c 4.009,0 7.292,-3.262 7.292,-7.259 0,-4.019 -3.283,-7.282 -7.292,-7.282"
     id="path28" /></g>
</svg>
